<mxfile host="Electron" agent="Mozilla/5.0 (Windows NT 10.0; Win64; x64) AppleWebKit/537.36 (KHTML, like Gecko) draw.io/26.0.16 Chrome/132.0.6834.196 Electron/34.2.0 Safari/537.36" version="26.0.16">
  <diagram id="R2lEEEUBdFMjLlhIrx00" name="Page-1">
    <mxGraphModel dx="1848" dy="1004" grid="1" gridSize="10" guides="1" tooltips="1" connect="1" arrows="1" fold="1" page="1" pageScale="0.01" pageWidth="850" pageHeight="1100" math="0" shadow="0" extFonts="Permanent Marker^https://fonts.googleapis.com/css?family=Permanent+Marker">
      <root>
        <mxCell id="0" />
        <mxCell id="1" parent="0" />
        <mxCell id="b_XB5YI2eUqqzeUNhecL-2" value="user" style="whiteSpace=wrap;html=1;align=center;" parent="1" vertex="1">
          <mxGeometry x="100" y="160" width="175" height="70" as="geometry" />
        </mxCell>
        <mxCell id="b_XB5YI2eUqqzeUNhecL-3" value="profile" style="whiteSpace=wrap;html=1;align=center;" parent="1" vertex="1">
          <mxGeometry x="680" y="175" width="100" height="40" as="geometry" />
        </mxCell>
        <mxCell id="b_XB5YI2eUqqzeUNhecL-4" value="padtiont_details" style="whiteSpace=wrap;html=1;align=center;" parent="1" vertex="1">
          <mxGeometry x="710" y="370" width="100" height="40" as="geometry" />
        </mxCell>
        <mxCell id="J2yaaol_sce2eURwtefv-1" value="ID" style="ellipse;whiteSpace=wrap;html=1;align=center;fontStyle=4;" vertex="1" parent="1">
          <mxGeometry x="240" y="290" width="100" height="40" as="geometry" />
        </mxCell>
        <mxCell id="J2yaaol_sce2eURwtefv-3" value="name" style="ellipse;whiteSpace=wrap;html=1;align=center;" vertex="1" parent="1">
          <mxGeometry x="80" y="300" width="100" height="40" as="geometry" />
        </mxCell>
        <mxCell id="J2yaaol_sce2eURwtefv-4" value="first_name" style="ellipse;whiteSpace=wrap;html=1;align=center;" vertex="1" parent="1">
          <mxGeometry x="130" y="380" width="100" height="40" as="geometry" />
        </mxCell>
        <mxCell id="J2yaaol_sce2eURwtefv-5" value="last_name" style="ellipse;whiteSpace=wrap;html=1;align=center;" vertex="1" parent="1">
          <mxGeometry y="370" width="100" height="40" as="geometry" />
        </mxCell>
        <mxCell id="J2yaaol_sce2eURwtefv-6" value="gender" style="ellipse;whiteSpace=wrap;html=1;align=center;" vertex="1" parent="1">
          <mxGeometry x="-60" y="270" width="100" height="40" as="geometry" />
        </mxCell>
        <mxCell id="J2yaaol_sce2eURwtefv-7" value="phone" style="ellipse;whiteSpace=wrap;html=1;align=center;" vertex="1" parent="1">
          <mxGeometry x="290" y="70" width="100" height="40" as="geometry" />
        </mxCell>
        <mxCell id="J2yaaol_sce2eURwtefv-8" value="birthday" style="ellipse;whiteSpace=wrap;html=1;align=center;" vertex="1" parent="1">
          <mxGeometry x="-80" y="70" width="100" height="40" as="geometry" />
        </mxCell>
        <mxCell id="J2yaaol_sce2eURwtefv-9" value="address" style="ellipse;whiteSpace=wrap;html=1;align=center;" vertex="1" parent="1">
          <mxGeometry x="-70" y="170" width="100" height="40" as="geometry" />
        </mxCell>
        <mxCell id="J2yaaol_sce2eURwtefv-10" value="Country" style="ellipse;whiteSpace=wrap;html=1;align=center;" vertex="1" parent="1">
          <mxGeometry x="-210" y="240" width="100" height="40" as="geometry" />
        </mxCell>
        <mxCell id="J2yaaol_sce2eURwtefv-11" value="city" style="ellipse;whiteSpace=wrap;html=1;align=center;" vertex="1" parent="1">
          <mxGeometry x="-210" y="170" width="100" height="40" as="geometry" />
        </mxCell>
        <mxCell id="J2yaaol_sce2eURwtefv-12" value="state" style="ellipse;whiteSpace=wrap;html=1;align=center;" vertex="1" parent="1">
          <mxGeometry x="-250" y="100" width="100" height="40" as="geometry" />
        </mxCell>
        <mxCell id="J2yaaol_sce2eURwtefv-13" value="street" style="ellipse;whiteSpace=wrap;html=1;align=center;" vertex="1" parent="1">
          <mxGeometry x="-220" y="30" width="100" height="40" as="geometry" />
        </mxCell>
        <mxCell id="J2yaaol_sce2eURwtefv-14" value="email" style="ellipse;whiteSpace=wrap;html=1;align=center;" vertex="1" parent="1">
          <mxGeometry x="160" y="70" width="100" height="40" as="geometry" />
        </mxCell>
        <mxCell id="J2yaaol_sce2eURwtefv-15" value="password" style="ellipse;whiteSpace=wrap;html=1;align=center;" vertex="1" parent="1">
          <mxGeometry x="40" y="70" width="100" height="40" as="geometry" />
        </mxCell>
        <mxCell id="J2yaaol_sce2eURwtefv-16" value="" style="endArrow=none;html=1;rounded=0;entryX=0.401;entryY=0.018;entryDx=0;entryDy=0;entryPerimeter=0;" edge="1" parent="1" source="b_XB5YI2eUqqzeUNhecL-2" target="J2yaaol_sce2eURwtefv-1">
          <mxGeometry relative="1" as="geometry">
            <mxPoint x="60" y="250" as="sourcePoint" />
            <mxPoint x="220" y="250" as="targetPoint" />
          </mxGeometry>
        </mxCell>
        <mxCell id="J2yaaol_sce2eURwtefv-18" value="" style="endArrow=none;html=1;rounded=0;entryX=0.56;entryY=-0.04;entryDx=0;entryDy=0;entryPerimeter=0;exitX=0.449;exitY=1.018;exitDx=0;exitDy=0;exitPerimeter=0;" edge="1" parent="1" source="b_XB5YI2eUqqzeUNhecL-2" target="J2yaaol_sce2eURwtefv-3">
          <mxGeometry relative="1" as="geometry">
            <mxPoint x="160" y="250" as="sourcePoint" />
            <mxPoint x="219" y="311" as="targetPoint" />
          </mxGeometry>
        </mxCell>
        <mxCell id="J2yaaol_sce2eURwtefv-19" value="" style="endArrow=none;html=1;rounded=0;exitX=0.565;exitY=1.037;exitDx=0;exitDy=0;exitPerimeter=0;" edge="1" parent="1" source="J2yaaol_sce2eURwtefv-3" target="J2yaaol_sce2eURwtefv-4">
          <mxGeometry relative="1" as="geometry">
            <mxPoint x="190" y="279" as="sourcePoint" />
            <mxPoint x="249" y="340" as="targetPoint" />
          </mxGeometry>
        </mxCell>
        <mxCell id="J2yaaol_sce2eURwtefv-20" value="" style="endArrow=none;html=1;rounded=0;" edge="1" parent="1" source="J2yaaol_sce2eURwtefv-3" target="J2yaaol_sce2eURwtefv-5">
          <mxGeometry relative="1" as="geometry">
            <mxPoint x="60.5" y="340" as="sourcePoint" />
            <mxPoint x="119.5" y="401" as="targetPoint" />
          </mxGeometry>
        </mxCell>
        <mxCell id="J2yaaol_sce2eURwtefv-21" value="" style="endArrow=none;html=1;rounded=0;exitX=0.965;exitY=0.601;exitDx=0;exitDy=0;exitPerimeter=0;" edge="1" parent="1" source="J2yaaol_sce2eURwtefv-6" target="b_XB5YI2eUqqzeUNhecL-2">
          <mxGeometry relative="1" as="geometry">
            <mxPoint x="-50" y="260" as="sourcePoint" />
            <mxPoint x="110" y="260" as="targetPoint" />
          </mxGeometry>
        </mxCell>
        <mxCell id="J2yaaol_sce2eURwtefv-23" value="" style="endArrow=none;html=1;rounded=0;entryX=0;entryY=0.75;entryDx=0;entryDy=0;exitX=1;exitY=0.5;exitDx=0;exitDy=0;" edge="1" parent="1" source="J2yaaol_sce2eURwtefv-9" target="b_XB5YI2eUqqzeUNhecL-2">
          <mxGeometry relative="1" as="geometry">
            <mxPoint x="-70" y="240" as="sourcePoint" />
            <mxPoint x="90" y="240" as="targetPoint" />
          </mxGeometry>
        </mxCell>
        <mxCell id="J2yaaol_sce2eURwtefv-24" value="" style="endArrow=none;html=1;rounded=0;exitX=1;exitY=0.5;exitDx=0;exitDy=0;entryX=0;entryY=0.5;entryDx=0;entryDy=0;" edge="1" parent="1" source="J2yaaol_sce2eURwtefv-10" target="J2yaaol_sce2eURwtefv-9">
          <mxGeometry relative="1" as="geometry">
            <mxPoint x="-110" y="230" as="sourcePoint" />
            <mxPoint x="50" y="230" as="targetPoint" />
          </mxGeometry>
        </mxCell>
        <mxCell id="J2yaaol_sce2eURwtefv-25" value="" style="endArrow=none;html=1;rounded=0;exitX=1;exitY=0.5;exitDx=0;exitDy=0;entryX=0;entryY=0.5;entryDx=0;entryDy=0;" edge="1" parent="1" source="J2yaaol_sce2eURwtefv-11" target="J2yaaol_sce2eURwtefv-9">
          <mxGeometry relative="1" as="geometry">
            <mxPoint x="-100" y="270" as="sourcePoint" />
            <mxPoint x="-60" y="200" as="targetPoint" />
          </mxGeometry>
        </mxCell>
        <mxCell id="J2yaaol_sce2eURwtefv-26" value="" style="endArrow=none;html=1;rounded=0;exitX=1;exitY=0.5;exitDx=0;exitDy=0;entryX=0;entryY=0.5;entryDx=0;entryDy=0;" edge="1" parent="1" source="J2yaaol_sce2eURwtefv-12" target="J2yaaol_sce2eURwtefv-9">
          <mxGeometry relative="1" as="geometry">
            <mxPoint x="-90" y="280" as="sourcePoint" />
            <mxPoint x="-50" y="210" as="targetPoint" />
          </mxGeometry>
        </mxCell>
        <mxCell id="J2yaaol_sce2eURwtefv-27" value="" style="endArrow=none;html=1;rounded=0;exitX=0.86;exitY=0.768;exitDx=0;exitDy=0;exitPerimeter=0;entryX=0;entryY=0.5;entryDx=0;entryDy=0;" edge="1" parent="1" source="J2yaaol_sce2eURwtefv-13" target="J2yaaol_sce2eURwtefv-9">
          <mxGeometry relative="1" as="geometry">
            <mxPoint x="-80" y="290" as="sourcePoint" />
            <mxPoint x="-70" y="180" as="targetPoint" />
          </mxGeometry>
        </mxCell>
        <mxCell id="J2yaaol_sce2eURwtefv-28" value="" style="endArrow=none;html=1;rounded=0;exitX=0.8;exitY=1;exitDx=0;exitDy=0;entryX=0.004;entryY=0.168;entryDx=0;entryDy=0;entryPerimeter=0;exitPerimeter=0;" edge="1" parent="1" source="J2yaaol_sce2eURwtefv-8" target="b_XB5YI2eUqqzeUNhecL-2">
          <mxGeometry relative="1" as="geometry">
            <mxPoint x="-70" y="300" as="sourcePoint" />
            <mxPoint x="-30" y="230" as="targetPoint" />
          </mxGeometry>
        </mxCell>
        <mxCell id="J2yaaol_sce2eURwtefv-29" value="" style="endArrow=none;html=1;rounded=0;exitX=0.5;exitY=1;exitDx=0;exitDy=0;" edge="1" parent="1" source="J2yaaol_sce2eURwtefv-15" target="b_XB5YI2eUqqzeUNhecL-2">
          <mxGeometry relative="1" as="geometry">
            <mxPoint x="90" y="130" as="sourcePoint" />
            <mxPoint x="250" y="130" as="targetPoint" />
          </mxGeometry>
        </mxCell>
        <mxCell id="J2yaaol_sce2eURwtefv-30" value="" style="endArrow=none;html=1;rounded=0;exitX=0.417;exitY=0.967;exitDx=0;exitDy=0;exitPerimeter=0;entryX=0.458;entryY=0.043;entryDx=0;entryDy=0;entryPerimeter=0;" edge="1" parent="1" source="J2yaaol_sce2eURwtefv-14" target="b_XB5YI2eUqqzeUNhecL-2">
          <mxGeometry relative="1" as="geometry">
            <mxPoint x="200" y="130" as="sourcePoint" />
            <mxPoint x="360" y="130" as="targetPoint" />
          </mxGeometry>
        </mxCell>
        <mxCell id="J2yaaol_sce2eURwtefv-31" value="" style="endArrow=none;html=1;rounded=0;exitX=0.347;exitY=1.031;exitDx=0;exitDy=0;exitPerimeter=0;entryX=0.572;entryY=-0.008;entryDx=0;entryDy=0;entryPerimeter=0;" edge="1" parent="1" source="J2yaaol_sce2eURwtefv-7" target="b_XB5YI2eUqqzeUNhecL-2">
          <mxGeometry relative="1" as="geometry">
            <mxPoint x="300" y="130" as="sourcePoint" />
            <mxPoint x="460" y="130" as="targetPoint" />
          </mxGeometry>
        </mxCell>
        <mxCell id="J2yaaol_sce2eURwtefv-32" value="Relationship" style="shape=rhombus;perimeter=rhombusPerimeter;whiteSpace=wrap;html=1;align=center;" vertex="1" parent="1">
          <mxGeometry x="425" y="170" width="120" height="60" as="geometry" />
        </mxCell>
        <mxCell id="J2yaaol_sce2eURwtefv-36" value="" style="shape=link;html=1;rounded=0;exitX=0;exitY=0.5;exitDx=0;exitDy=0;entryX=1;entryY=0.5;entryDx=0;entryDy=0;" edge="1" parent="1" source="J2yaaol_sce2eURwtefv-32" target="b_XB5YI2eUqqzeUNhecL-2">
          <mxGeometry relative="1" as="geometry">
            <mxPoint x="390" y="320" as="sourcePoint" />
            <mxPoint x="550" y="320" as="targetPoint" />
          </mxGeometry>
        </mxCell>
        <mxCell id="J2yaaol_sce2eURwtefv-37" value="1" style="resizable=0;html=1;whiteSpace=wrap;align=right;verticalAlign=bottom;" connectable="0" vertex="1" parent="J2yaaol_sce2eURwtefv-36">
          <mxGeometry x="1" relative="1" as="geometry" />
        </mxCell>
        <mxCell id="J2yaaol_sce2eURwtefv-40" value="" style="endArrow=none;html=1;rounded=0;exitX=1;exitY=0.5;exitDx=0;exitDy=0;" edge="1" parent="1" source="J2yaaol_sce2eURwtefv-32" target="b_XB5YI2eUqqzeUNhecL-3">
          <mxGeometry relative="1" as="geometry">
            <mxPoint x="520" y="300" as="sourcePoint" />
            <mxPoint x="680" y="300" as="targetPoint" />
          </mxGeometry>
        </mxCell>
        <mxCell id="J2yaaol_sce2eURwtefv-41" value="1" style="resizable=0;html=1;whiteSpace=wrap;align=right;verticalAlign=bottom;" connectable="0" vertex="1" parent="J2yaaol_sce2eURwtefv-40">
          <mxGeometry x="1" relative="1" as="geometry" />
        </mxCell>
        <mxCell id="J2yaaol_sce2eURwtefv-42" value="Relationship" style="shape=rhombus;perimeter=rhombusPerimeter;whiteSpace=wrap;html=1;align=center;" vertex="1" parent="1">
          <mxGeometry x="440" y="270" width="120" height="60" as="geometry" />
        </mxCell>
        <mxCell id="J2yaaol_sce2eURwtefv-47" value="" style="endArrow=none;html=1;rounded=0;exitX=1;exitY=0.5;exitDx=0;exitDy=0;entryX=0;entryY=0.5;entryDx=0;entryDy=0;" edge="1" parent="1" source="J2yaaol_sce2eURwtefv-42" target="b_XB5YI2eUqqzeUNhecL-4">
          <mxGeometry relative="1" as="geometry">
            <mxPoint x="310" y="450" as="sourcePoint" />
            <mxPoint x="470" y="450" as="targetPoint" />
          </mxGeometry>
        </mxCell>
        <mxCell id="J2yaaol_sce2eURwtefv-48" value="N" style="resizable=0;html=1;whiteSpace=wrap;align=right;verticalAlign=bottom;" connectable="0" vertex="1" parent="J2yaaol_sce2eURwtefv-47">
          <mxGeometry x="1" relative="1" as="geometry" />
        </mxCell>
        <mxCell id="J2yaaol_sce2eURwtefv-49" value="" style="shape=link;html=1;rounded=0;exitX=0;exitY=0.5;exitDx=0;exitDy=0;entryX=1;entryY=1;entryDx=0;entryDy=0;" edge="1" parent="1" source="J2yaaol_sce2eURwtefv-42" target="b_XB5YI2eUqqzeUNhecL-2">
          <mxGeometry relative="1" as="geometry">
            <mxPoint x="300" y="400" as="sourcePoint" />
            <mxPoint x="460" y="400" as="targetPoint" />
          </mxGeometry>
        </mxCell>
        <mxCell id="J2yaaol_sce2eURwtefv-50" value="1" style="resizable=0;html=1;whiteSpace=wrap;align=right;verticalAlign=bottom;" connectable="0" vertex="1" parent="J2yaaol_sce2eURwtefv-49">
          <mxGeometry x="1" relative="1" as="geometry" />
        </mxCell>
        <mxCell id="J2yaaol_sce2eURwtefv-51" value="role" style="ellipse;whiteSpace=wrap;html=1;align=center;" vertex="1" parent="1">
          <mxGeometry x="-120" y="360" width="100" height="40" as="geometry" />
        </mxCell>
        <mxCell id="J2yaaol_sce2eURwtefv-52" value="" style="endArrow=none;html=1;rounded=0;exitX=0.986;exitY=0.409;exitDx=0;exitDy=0;exitPerimeter=0;entryX=0.279;entryY=0.996;entryDx=0;entryDy=0;entryPerimeter=0;" edge="1" parent="1" source="J2yaaol_sce2eURwtefv-51" target="b_XB5YI2eUqqzeUNhecL-2">
          <mxGeometry relative="1" as="geometry">
            <mxPoint x="-60" y="470" as="sourcePoint" />
            <mxPoint x="100" y="470" as="targetPoint" />
          </mxGeometry>
        </mxCell>
        <mxCell id="J2yaaol_sce2eURwtefv-53" value="ID" style="ellipse;whiteSpace=wrap;html=1;align=center;fontStyle=4;" vertex="1" parent="1">
          <mxGeometry x="600" y="50" width="100" height="40" as="geometry" />
        </mxCell>
        <mxCell id="J2yaaol_sce2eURwtefv-54" value="" style="endArrow=none;html=1;rounded=0;exitX=0.694;exitY=1.005;exitDx=0;exitDy=0;exitPerimeter=0;" edge="1" parent="1" source="J2yaaol_sce2eURwtefv-53">
          <mxGeometry relative="1" as="geometry">
            <mxPoint x="510" y="110" as="sourcePoint" />
            <mxPoint x="730" y="170" as="targetPoint" />
          </mxGeometry>
        </mxCell>
        <mxCell id="J2yaaol_sce2eURwtefv-56" value="" style="endArrow=none;html=1;rounded=0;exitX=0.542;exitY=0.941;exitDx=0;exitDy=0;exitPerimeter=0;entryX=0.437;entryY=0.021;entryDx=0;entryDy=0;entryPerimeter=0;" edge="1" parent="1" source="J2yaaol_sce2eURwtefv-57" target="b_XB5YI2eUqqzeUNhecL-3">
          <mxGeometry relative="1" as="geometry">
            <mxPoint x="789.4000000000001" y="78.19999999999993" as="sourcePoint" />
            <mxPoint x="720" y="170" as="targetPoint" />
          </mxGeometry>
        </mxCell>
        <mxCell id="J2yaaol_sce2eURwtefv-57" value="ABOUT" style="ellipse;whiteSpace=wrap;html=1;align=center;" vertex="1" parent="1">
          <mxGeometry x="730" y="30" width="100" height="40" as="geometry" />
        </mxCell>
        <mxCell id="J2yaaol_sce2eURwtefv-58" value="" style="endArrow=none;html=1;rounded=0;exitX=0.542;exitY=0.941;exitDx=0;exitDy=0;exitPerimeter=0;" edge="1" parent="1" source="J2yaaol_sce2eURwtefv-59">
          <mxGeometry relative="1" as="geometry">
            <mxPoint x="915.4000000000001" y="108.19999999999993" as="sourcePoint" />
            <mxPoint x="730" y="170" as="targetPoint" />
          </mxGeometry>
        </mxCell>
        <mxCell id="J2yaaol_sce2eURwtefv-59" value="QUALIFICaTION" style="ellipse;whiteSpace=wrap;html=1;align=center;" vertex="1" parent="1">
          <mxGeometry x="660" y="-22" width="100" height="40" as="geometry" />
        </mxCell>
        <mxCell id="J2yaaol_sce2eURwtefv-61" value="" style="endArrow=none;html=1;rounded=0;exitX=0;exitY=0.5;exitDx=0;exitDy=0;entryX=1;entryY=0.5;entryDx=0;entryDy=0;" edge="1" parent="1" source="J2yaaol_sce2eURwtefv-62" target="b_XB5YI2eUqqzeUNhecL-3">
          <mxGeometry relative="1" as="geometry">
            <mxPoint x="955.4000000000001" y="192.19999999999993" as="sourcePoint" />
            <mxPoint x="890" y="290" as="targetPoint" />
          </mxGeometry>
        </mxCell>
        <mxCell id="J2yaaol_sce2eURwtefv-62" value="URL_WEBSITE" style="ellipse;whiteSpace=wrap;html=1;align=center;" vertex="1" parent="1">
          <mxGeometry x="970" y="190" width="100" height="40" as="geometry" />
        </mxCell>
        <mxCell id="J2yaaol_sce2eURwtefv-63" value="" style="endArrow=none;html=1;rounded=0;exitX=0;exitY=0.5;exitDx=0;exitDy=0;entryX=1;entryY=0.25;entryDx=0;entryDy=0;" edge="1" parent="1" source="J2yaaol_sce2eURwtefv-64" target="b_XB5YI2eUqqzeUNhecL-3">
          <mxGeometry relative="1" as="geometry">
            <mxPoint x="935.4000000000001" y="128.19999999999993" as="sourcePoint" />
            <mxPoint x="870" y="226" as="targetPoint" />
          </mxGeometry>
        </mxCell>
        <mxCell id="J2yaaol_sce2eURwtefv-64" value="URL_FACEBOOK" style="ellipse;whiteSpace=wrap;html=1;align=center;" vertex="1" parent="1">
          <mxGeometry x="880" y="80" width="100" height="40" as="geometry" />
        </mxCell>
        <mxCell id="J2yaaol_sce2eURwtefv-65" value="" style="endArrow=none;html=1;rounded=0;exitX=0.542;exitY=0.941;exitDx=0;exitDy=0;exitPerimeter=0;entryX=1;entryY=0.25;entryDx=0;entryDy=0;" edge="1" parent="1" source="J2yaaol_sce2eURwtefv-66" target="b_XB5YI2eUqqzeUNhecL-3">
          <mxGeometry relative="1" as="geometry">
            <mxPoint x="945.4000000000001" y="138.19999999999993" as="sourcePoint" />
            <mxPoint x="880" y="236" as="targetPoint" />
          </mxGeometry>
        </mxCell>
        <mxCell id="J2yaaol_sce2eURwtefv-66" value="URL_PIC_PROFILE" style="ellipse;whiteSpace=wrap;html=1;align=center;" vertex="1" parent="1">
          <mxGeometry x="820" y="-52" width="130" height="52" as="geometry" />
        </mxCell>
        <mxCell id="J2yaaol_sce2eURwtefv-67" value="" style="endArrow=none;html=1;rounded=0;exitX=0;exitY=0.5;exitDx=0;exitDy=0;entryX=1;entryY=0.25;entryDx=0;entryDy=0;" edge="1" parent="1" source="J2yaaol_sce2eURwtefv-68" target="b_XB5YI2eUqqzeUNhecL-3">
          <mxGeometry relative="1" as="geometry">
            <mxPoint x="955.4000000000001" y="148.19999999999993" as="sourcePoint" />
            <mxPoint x="890" y="246" as="targetPoint" />
          </mxGeometry>
        </mxCell>
        <mxCell id="J2yaaol_sce2eURwtefv-68" value="URL_WHATSAPP" style="ellipse;whiteSpace=wrap;html=1;align=center;" vertex="1" parent="1">
          <mxGeometry x="889" y="30" width="100" height="40" as="geometry" />
        </mxCell>
        <mxCell id="J2yaaol_sce2eURwtefv-69" value="" style="endArrow=none;html=1;rounded=0;exitX=0;exitY=0.5;exitDx=0;exitDy=0;entryX=1;entryY=0.5;entryDx=0;entryDy=0;" edge="1" parent="1" source="J2yaaol_sce2eURwtefv-70" target="b_XB5YI2eUqqzeUNhecL-3">
          <mxGeometry relative="1" as="geometry">
            <mxPoint x="948.4000000000001" y="295.19999999999993" as="sourcePoint" />
            <mxPoint x="883" y="393" as="targetPoint" />
          </mxGeometry>
        </mxCell>
        <mxCell id="J2yaaol_sce2eURwtefv-70" value="URL_INSTAGRIM" style="ellipse;whiteSpace=wrap;html=1;align=center;" vertex="1" parent="1">
          <mxGeometry x="950" y="130" width="100" height="40" as="geometry" />
        </mxCell>
        <mxCell id="J2yaaol_sce2eURwtefv-71" value="" style="endArrow=none;html=1;rounded=0;exitX=0;exitY=0.5;exitDx=0;exitDy=0;entryX=1;entryY=0;entryDx=0;entryDy=0;" edge="1" parent="1" source="J2yaaol_sce2eURwtefv-79" target="b_XB5YI2eUqqzeUNhecL-4">
          <mxGeometry relative="1" as="geometry">
            <mxPoint x="1000" y="330" as="sourcePoint" />
            <mxPoint x="810" y="315" as="targetPoint" />
          </mxGeometry>
        </mxCell>
        <mxCell id="J2yaaol_sce2eURwtefv-73" value="" style="endArrow=none;html=1;rounded=0;exitX=0;exitY=0.5;exitDx=0;exitDy=0;entryX=1;entryY=0.25;entryDx=0;entryDy=0;" edge="1" parent="1" source="J2yaaol_sce2eURwtefv-74" target="b_XB5YI2eUqqzeUNhecL-4">
          <mxGeometry relative="1" as="geometry">
            <mxPoint x="985.4000000000001" y="362.19999999999993" as="sourcePoint" />
            <mxPoint x="810" y="365" as="targetPoint" />
          </mxGeometry>
        </mxCell>
        <mxCell id="J2yaaol_sce2eURwtefv-74" value="URL_IMAGE&amp;nbsp;" style="ellipse;whiteSpace=wrap;html=1;align=center;" vertex="1" parent="1">
          <mxGeometry x="1000" y="360" width="100" height="40" as="geometry" />
        </mxCell>
        <mxCell id="J2yaaol_sce2eURwtefv-75" value="" style="endArrow=none;html=1;rounded=0;exitX=0;exitY=0.5;exitDx=0;exitDy=0;entryX=1;entryY=0.75;entryDx=0;entryDy=0;" edge="1" parent="1" source="J2yaaol_sce2eURwtefv-76" target="b_XB5YI2eUqqzeUNhecL-4">
          <mxGeometry relative="1" as="geometry">
            <mxPoint x="995.4000000000001" y="422.19999999999993" as="sourcePoint" />
            <mxPoint x="820" y="425" as="targetPoint" />
          </mxGeometry>
        </mxCell>
        <mxCell id="J2yaaol_sce2eURwtefv-76" value="PERSENGE&amp;nbsp;" style="ellipse;whiteSpace=wrap;html=1;align=center;" vertex="1" parent="1">
          <mxGeometry x="1010" y="420" width="100" height="40" as="geometry" />
        </mxCell>
        <mxCell id="J2yaaol_sce2eURwtefv-77" value="" style="endArrow=none;html=1;rounded=0;exitX=0;exitY=0.5;exitDx=0;exitDy=0;entryX=1;entryY=1;entryDx=0;entryDy=0;" edge="1" parent="1" source="J2yaaol_sce2eURwtefv-78" target="b_XB5YI2eUqqzeUNhecL-4">
          <mxGeometry relative="1" as="geometry">
            <mxPoint x="985.4000000000001" y="502.19999999999993" as="sourcePoint" />
            <mxPoint x="810" y="505" as="targetPoint" />
          </mxGeometry>
        </mxCell>
        <mxCell id="J2yaaol_sce2eURwtefv-78" value="STATUS&amp;nbsp;" style="ellipse;whiteSpace=wrap;html=1;align=center;" vertex="1" parent="1">
          <mxGeometry x="1000" y="500" width="100" height="40" as="geometry" />
        </mxCell>
        <mxCell id="J2yaaol_sce2eURwtefv-79" value="ID" style="ellipse;whiteSpace=wrap;html=1;align=center;fontStyle=4;" vertex="1" parent="1">
          <mxGeometry x="1020" y="300" width="100" height="40" as="geometry" />
        </mxCell>
      </root>
    </mxGraphModel>
  </diagram>
</mxfile>
